<?xml version="1.0" encoding="utf-8"?>
<!-- Generator: Adobe Illustrator 20.0.0, SVG Export Plug-In . SVG Version: 6.00 Build 0)  -->
<svg version="1.1" id="Layer_1" xmlns="http://www.w3.org/2000/svg" xmlns:xlink="http://www.w3.org/1999/xlink" x="0px" y="0px"
	 viewBox="0 0 264 88" style="enable-background:new 0 0 264 88;" xml:space="preserve">
<style type="text/css">
	.st0{fill:#111111;}
</style>
<title>default-skin 2</title>
<polygon class="st0" points="29.9,57.3 22,65.3 14.1,57.3 13.5,57.9 21.5,65.8 13.5,73.7 14.1,74.3 22,66.3 29.9,74.3 30.5,73.7 
	22.5,65.8 30.5,57.9 "/>
<polygon class="st0" points="147,60.2 154.1,67.2 153.6,67.6 145.9,59.9 153.6,52.2 154.1,52.5 147,59.6 169.8,59.6 169.8,60.2 "/>
<polygon class="st0" points="115.9,59.5 108.8,52.5 109.2,52.1 116.9,59.8 109.2,67.5 108.8,67.2 115.9,60.1 93,60.1 93,59.5 "/>
<path class="st0" d="M112.6,19.9c0-3.2-2.6-5.7-5.7-5.7c-3.2,0-5.7,2.6-5.7,5.7s2.6,5.7,5.7,5.7C110,25.6,112.6,23,112.6,19.9z
	 M116.9,29.4l-0.5,0.5l-5.3-5.3c-1.1,1.1-2.7,1.6-4.3,1.6c-3.5,0-6.5-2.9-6.5-6.5s2.9-6.5,6.5-6.5s6.5,2.9,6.5,6.5
	c0,1.6-0.7,3.2-1.6,4.3L116.9,29.4z"/>
<path class="st0" d="M156.6,19.8c0-3.2-2.6-5.7-5.7-5.7c-3.2,0-5.7,2.6-5.7,5.7s2.6,5.7,5.7,5.7S156.6,22.9,156.6,19.8z M160.9,29.3
	l-0.5,0.5l-5.3-5.3c-1.1,1.1-2.7,1.6-4.3,1.6c-3.5,0-6.5-2.9-6.5-6.5s2.9-6.5,6.5-6.5c3.5,0,6.5,2.9,6.5,6.5c0,1.6-0.7,3.2-1.6,4.3
	L160.9,29.3z"/>
</svg>
